# xmcd
#
# Track frame offsets:
#	150
#	19000
#	34365
#	68925
#	84898
#	109959
#	147635
#	163274
#	187774
#	227703
#	254399
#	278161
#	291941
#	320521
#	339784
#
# Disc length: 4799 seconds
#
# Revision: 1
# Processed by: cddbd v1.5.1PL2 Copyright (c) Steve Scherf et al.
# Submitted via: EasyCDDAExtractor 6.2.0.3
#
DISCID=d912bd0f
DTITLE=Zalman Brothers Band - Our Road
DYEAR=2003
DGENRE=Blues
TTITLE0=Plan (live)
TTITLE1=Je to tak (live)
TTITLE2=Roadhouse blues (live)
TTITLE3=Please don't leave me
TTITLE4=Our road
TTITLE5=Na kraji priepasti
TTITLE6=Na rade som ja
TTITLE7=Ku hviezdam
TTITLE8=Navrat
TTITLE9=Sky is crying
TTITLE10=Gimme all your lovin'
TTITLE11=All your love
TTITLE12=Jasmine
TTITLE13=Sharp dressed man
TTITLE14=Sweet home Alabama
EXTD=
EXTT0=
EXTT1=
EXTT2=
EXTT3=
EXTT4=
EXTT5=
EXTT6=
EXTT7=
EXTT8=
EXTT9=
EXTT10=
EXTT11=
EXTT12=
EXTT13=
EXTT14=
PLAYORDER=
